<?xml version="1.0" encoding="utf-8"?>
<!-- Generator: Adobe Illustrator 27.5.0, SVG Export Plug-In . SVG Version: 6.00 Build 0)  -->
<svg version="1.1" id="_图层_1_复制" xmlns="http://www.w3.org/2000/svg" xmlns:xlink="http://www.w3.org/1999/xlink" x="0px"
	 y="0px" viewBox="0 0 250 250" style="enable-background:new 0 0 250 250;" xml:space="preserve">
<style type="text/css">
	.st0{display:none;fill:url(#SVGID_1_);}
	.st1{fill:url(#SVGID_00000049916116201192337870000000002078362086622351_);}
	.st2{display:none;fill:url(#SVGID_00000129910906304326361540000009580200030051989944_);}
	.st3{display:none;fill:url(#SVGID_00000172400350746853832340000008879443803756953222_);}
	.st4{fill:url(#SVGID_00000134248788341276406200000015035665137995806899_);}
</style>
<linearGradient id="SVGID_1_" gradientUnits="userSpaceOnUse" x1="-152.6503" y1="324.02" x2="-152.6503" y2="74.02" gradientTransform="matrix(1 0 0 1 0 -74.02)">
	<stop  offset="0" style="stop-color:#FEB705"/>
	<stop  offset="1" style="stop-color:#FEF892"/>
</linearGradient>
<circle class="st0" cx="-152.7" cy="125" r="125"/>
<linearGradient id="SVGID_00000105407909152481911080000003938038956076010640_" gradientUnits="userSpaceOnUse" x1="125" y1="324.02" x2="125" y2="74.02" gradientTransform="matrix(1 0 0 1 0 -74.02)">
	<stop  offset="0" style="stop-color:#FF9A1A"/>
	<stop  offset="1" style="stop-color:#FEEB92"/>
</linearGradient>
<circle style="fill:url(#SVGID_00000105407909152481911080000003938038956076010640_);" cx="125" cy="125" r="125"/>
<linearGradient id="SVGID_00000054249022116626572370000007794722638929599903_" gradientUnits="userSpaceOnUse" x1="-152.6503" y1="282.88" x2="-152.6503" y2="115.16" gradientTransform="matrix(1 0 0 1 0 -74.02)">
	<stop  offset="0" style="stop-color:#FF830F"/>
	<stop  offset="1" style="stop-color:#FFD032"/>
</linearGradient>
<circle style="display:none;fill:url(#SVGID_00000054249022116626572370000007794722638929599903_);" cx="-152.7" cy="125" r="83.9"/>
<linearGradient id="SVGID_00000090976743943730183690000010330420083140032901_" gradientUnits="userSpaceOnUse" x1="-152.6453" y1="255.11" x2="-152.6453" y2="142.93" gradientTransform="matrix(1 0 0 1 0 -74.02)">
	<stop  offset="0" style="stop-color:#FDE3A0"/>
	<stop  offset="1" style="stop-color:#FFFEF4"/>
</linearGradient>
<path style="display:none;fill:url(#SVGID_00000090976743943730183690000010330420083140032901_);" d="M-150.3,152.4
	c3,0,6-0.5,8.8-1.6s5.4-2.5,7.7-4.3s4.3-3.9,6.1-6.2l27,10.9c-3.2,5.9-7.2,11.2-12.2,15.7s-10.7,8-17.2,10.5
	c-6.5,2.5-13.2,3.8-20.2,3.8c-15.5,0-28.7-5.5-39.6-16.4c-11-11-16.4-24.2-16.4-39.6s5.5-28.7,16.4-39.6c11-11,24.2-16.4,39.6-16.4
	c7.5,0,14.7,1.5,21.5,4.4c6.8,2.9,12.8,6.9,17.8,11.9c5.1,5,9.1,10.8,12,17.4l-26.8,10.9c-2.2-4.8-5.6-8.6-10-11.4
	c-4.4-2.8-9.3-4.3-14.6-4.3c-7.5,0-14,2.6-19.3,7.9c-5.4,5.3-8,11.7-8,19.2c0,5,1.2,9.6,3.7,13.8c2.4,4.2,5.8,7.5,9.9,9.9
	C-159.9,151.1-155.3,152.4-150.3,152.4L-150.3,152.4L-150.3,152.4z"/>
<linearGradient id="SVGID_00000111881316834117039680000004367484401789210549_" gradientUnits="userSpaceOnUse" x1="125" y1="274.02" x2="125" y2="124.02" gradientTransform="matrix(1 0 0 1 0 -74.02)">
	<stop  offset="0" style="stop-color:#FFF3D3"/>
	<stop  offset="1" style="stop-color:#FFFFFF"/>
</linearGradient>
<path style="fill:url(#SVGID_00000111881316834117039680000004367484401789210549_);" d="M128.2,161.6c4.1,0,8-0.7,11.8-2.1
	c3.8-1.4,7.2-3.3,10.3-5.7s5.8-5.2,8.1-8.3l36,14.6c-4.2,8-9.7,14.9-16.3,20.9c-6.6,6-14.3,10.7-22.9,14c-8.7,3.4-17.7,5-27,5
	c-20.7,0-38.3-7.3-53-22c-14.7-14.7-22-32.3-22-53s7.3-38.3,22-53s32.3-22,53-22c10.1,0,19.7,2,28.8,5.8c9.1,3.9,17,9.2,23.9,15.9
	c6.8,6.7,12.1,14.5,16,23.3L161,109.6c-3-6.4-7.5-11.4-13.4-15.2c-5.9-3.8-12.4-5.7-19.5-5.7c-10.1,0-18.7,3.5-25.8,10.6
	c-7.2,7.1-10.7,15.6-10.7,25.7c0,6.7,1.6,12.8,4.9,18.4c3.3,5.6,7.7,10,13.3,13.3C115.3,160,121.4,161.6,128.2,161.6L128.2,161.6
	L128.2,161.6z"/>
</svg>
