<?xml version="1.0" encoding="utf-8"?>
<!-- Generator: Adobe Illustrator 24.3.0, SVG Export Plug-In . SVG Version: 6.00 Build 0)  -->
<svg version="1.1" id="图层_1" xmlns="http://www.w3.org/2000/svg" xmlns:xlink="http://www.w3.org/1999/xlink" x="0px" y="0px"
	 viewBox="0 0 26 26" style="enable-background:new 0 0 26 26;" xml:space="preserve">
<style type="text/css">
	.st0{fill:#91877F;}
</style>
<g>
	<path class="st0" d="M15,17c0.6-1,1.5-1.7,2.5-2.2V6H6.7v11H15z"/>
	<path class="st0" d="M14,20.3c0-0.6,0.1-1.2,0.2-1.7H6.3c-0.7,0-1.3-0.5-1.3-1.2V5.5c0-0.7,0.6-1.3,1.2-1.3H18
		c0.6,0,1.2,0.6,1.2,1.3v8.8c0.3,0,0.6-0.1,0.9-0.1c0.9,0,1.8,0.2,2.6,0.6V4.6c0-2.5-2-4.6-4.6-4.6H6C3.5,0,1.5,2,1.5,4.6v16.9
		C1.5,24,3.5,26,6,26h12C15.7,25.1,14,22.9,14,20.3z M12.1,23.2c-0.9,0-1.6-0.7-1.6-1.6s0.7-1.6,1.6-1.6c0.9,0,1.6,0.7,1.6,1.6
		C13.7,22.5,13,23.2,12.1,23.2z"/>
	<path class="st0" d="M20.2,16c-2.4,0-4.4,1.9-4.4,4.4c0,2.4,2,4.4,4.4,4.4s4.4-2,4.4-4.4S22.6,16,20.2,16z M23,19.3l-3,3
		c-0.3,0.3-0.7,0.3-1,0l-1.7-1.7c-0.3-0.3-0.3-0.7,0-1s0.7-0.3,1,0l1.2,1.2l2.5-2.6c0.3-0.3,0.7-0.3,1,0
		C23.2,18.6,23.2,19.1,23,19.3z"/>
</g>
</svg>
