<?xml version="1.0" encoding="utf-8"?>
<!-- Generator: Adobe Illustrator 24.3.0, SVG Export Plug-In . SVG Version: 6.00 Build 0)  -->
<svg version="1.1" id="图层_1" xmlns="http://www.w3.org/2000/svg" xmlns:xlink="http://www.w3.org/1999/xlink" x="0px" y="0px"
	 viewBox="0 0 21.8 26" style="enable-background:new 0 0 21.8 26;" xml:space="preserve">
<style type="text/css">
	.st0{fill:#ffffff;}
</style>
<g>
	<path class="st0" d="M5.4,9c0-0.5-0.3-1-0.8-1.1L1.1,7.4C0.6,7.3,0.1,7.7,0,8.2c-0.1,0.5,0.3,1,0.8,1.1c0,0,0,0,0,0l3.4,0.6
		C4.8,9.9,5.3,9.6,5.4,9C5.4,9.1,5.4,9.1,5.4,9z M10.6,5.3c0.5,0.1,1-0.2,1.1-0.8c0,0,0,0,0,0l0.4-3.4c0.1-0.5-0.3-1-0.8-1.1
		c-0.5-0.1-1,0.2-1.1,0.8c0,0,0,0,0,0L9.7,4.2C9.6,4.7,10,5.2,10.6,5.3L10.6,5.3z M5.2,1.9C4.9,1.5,4.3,1.4,3.8,1.7
		C3.4,2.1,3.3,2.6,3.7,3c0,0,0,0,0,0l2.1,2.8c0.3,0.4,0.9,0.5,1.3,0.2c0.4-0.3,0.5-0.9,0.2-1.3c0,0,0,0,0,0L5.2,1.9L5.2,1.9z"/>
	<path class="st0" d="M8.2,8.8l0.1,12.9c0,0.7,0.6,1.2,1.2,1.2c0.3,0,0.6-0.1,0.8-0.3l3.1-2.7l3.2,5.5c0.3,0.6,1.1,0.8,1.7,0.4
		l1.3-0.8c0.6-0.3,0.8-1.1,0.4-1.7L17,17.8l3.9-1.4c0.6-0.2,1-0.9,0.8-1.6c-0.1-0.3-0.3-0.5-0.5-0.7L10.1,7.7
		C9.5,7.4,8.8,7.5,8.4,8.1C8.3,8.3,8.2,8.5,8.2,8.8z"/>
</g>
</svg>
