<?xml version="1.0" encoding="UTF-8"?>
<svg id="_图层_1" data-name="图层 1" xmlns="http://www.w3.org/2000/svg" viewBox="0 0 200 200">
  <defs>
    <style>
      .cls-1 {
        fill: #91877F;
      }
    </style>
  </defs>
  <path class="cls-1" d="m90.25,93.84h-43.34C21.03,93.76.08,72.79,0,46.91.08,21.04,21.04.08,46.91,0c25.88.08,46.84,21.03,46.92,46.91v43.34c-.01,1.98-1.61,3.57-3.59,3.59Zm62.81,0h-43.34c-1.96,0-3.56-1.6-3.56-3.56v-43.34C106.24,21.06,127.21.1,153.09.03c25.87.08,46.83,21.04,46.91,46.91-.1,25.88-21.06,46.82-46.94,46.9Zm-106.15,106.16c-25.87-.08-46.83-21.04-46.91-46.91.08-25.88,21.03-46.84,46.91-46.92h43.34c1.96,0,3.56,1.6,3.56,3.56v43.34c-.05,25.89-21.01,46.86-46.9,46.94Zm106.15,0c-25.88-.08-46.84-21.03-46.92-46.91v-43.34c0-1.96,1.61-3.56,3.56-3.56h43.34c25.87.08,46.83,21.04,46.91,46.91-.05,25.87-21.01,46.84-46.89,46.9Z"/>
</svg>