<?xml version="1.0" encoding="UTF-8"?>
<svg id="new-coinpayu" xmlns="http://www.w3.org/2000/svg" viewBox="0 0 200 200">
  <defs>
    <style>
      .cls-1 {
        fill: #fff;
      }

      .cls-2 {
        fill: #ff8d32;
      }
    </style>
  </defs>
  <circle class="cls-2" cx="100" cy="100" r="100"/>
  <path class="cls-1" d="m108.63,63.88l-26.1,26.1,27.11,27.11,26.1-26.1-27.11-27.11h0Zm45.3,3.98l-21.7-21.7c-3.56-3.56-5.34-.55-5.34-.55l-11.55,11.55,27.11,27.11,11.93-11.93s2.07-1.95-.46-4.48h0Zm-103.05,86.14c6.55-.08,62.43-8.43,62.43-8.43,0,0,7.36-.04,1.87-5.53l-14.25-14.25.04-.04-27.11-27.11h0s-15.18-15.17-15.18-15.17c-4.5-4.5-4.16,2.98-4.16,2.98l-7.97,62.68s-.44,4.94,4.33,4.87h0Z"/>
</svg>