<?xml version="1.0" encoding="UTF-8"?>
<svg id="new-coinpayu" xmlns="http://www.w3.org/2000/svg" viewBox="0 0 200 200">
  <defs>
    <style>
      .cls-1 {
        fill: #91877f;
      }
    </style>
  </defs>
  <path class="cls-1" d="m62.56,28.73h74.96c1.47,0,2.68-1.21,2.66-2.68V2.65C140.19,1.2,138.99,0,137.5,0H62.56C61.1,0,59.88,1.18,59.88,2.65v23.42c0,1.45,1.2,2.65,2.68,2.65Zm.95,108.9c-7.22,0-13.09,5.8-13.09,12.94s5.87,12.94,13.09,12.94,13.09-5.8,13.09-12.94-5.84-12.94-13.09-12.94ZM177.62,14.5h-32.72v17.62c0,1.45-1.22,2.63-2.71,2.63H57.8c-1.49,0-2.71-1.18-2.71-2.63V14.5H22.38c-3.84,0-6.99,3.08-6.99,6.83v171.85c0,3.75,3.16,6.83,6.99,6.83h155.25c3.84,0,7-3.08,7-6.83V21.32c0-3.75-3.14-6.83-6.99-6.83ZM63.51,173.63c-12.88,0-23.33-10.33-23.33-23.06s10.45-23.06,23.33-23.06,23.33,10.33,23.33,23.06-10.45,23.06-23.33,23.06Zm25.05-100.45l-25.25,24.96c-1.06,1.05-2.46,1.56-3.86,1.56s-2.8-.51-3.86-1.56l-18.01-17.8c-2.09-2.07-2.1-5.44-.03-7.53,0,0,.02-.02.03-.03,2.1-2.07,5.55-2.07,7.65,0l14.2,14.03,21.46-21.21c2.1-2.07,5.55-2.07,7.65,0,2.1,2.03,2.15,5.39.12,7.49-.03.03-.06.06-.1.1Zm67.45,94.65h-45.81c-2.98,0-5.41-2.41-5.41-5.35s2.44-5.36,5.41-5.36h45.81c2.98,0,5.41,2.41,5.41,5.36s-2.44,5.35-5.41,5.35Zm0-22.53h-45.81c-2.98,0-5.41-2.41-5.41-5.35s2.44-5.35,5.41-5.35h45.81c2.98,0,5.41,2.41,5.41,5.35s-2.44,5.35-5.41,5.35Zm0-46.84h-45.81c-2.98,0-5.41-2.41-5.41-5.35s2.44-5.35,5.41-5.35h45.81c2.98,0,5.41,2.41,5.41,5.35s-2.44,5.35-5.41,5.35Zm0-23.2h-45.81c-2.98,0-5.41-2.41-5.41-5.35s2.44-5.35,5.41-5.35h45.81c2.98,0,5.41,2.41,5.41,5.35s-2.44,5.35-5.41,5.35Z"/>
</svg>