<?xml version="1.0" standalone="no"?><!DOCTYPE svg PUBLIC "-//W3C//DTD SVG 1.1//EN" "http://www.w3.org/Graphics/SVG/1.1/DTD/svg11.dtd"><svg t="1725428397734" class="icon" viewBox="0 0 1024 1024" version="1.1" xmlns="http://www.w3.org/2000/svg" p-id="10902" xmlns:xlink="http://www.w3.org/1999/xlink" width="200" height="200"><path d="M199.36 257.472c26.112 14.208 54.848 26.432 85.568 36.48a807.296 807.296 0 0 0-26.176 190.336H64a446.208 446.208 0 0 1 92.544-253.824c13.632 9.92 27.968 18.944 42.816 27.008z m293.12 265.856H297.792c1.408 63.36 9.792 124.288 24.512 179.328a748.608 748.608 0 0 1 170.24-23.104V523.328z m-293.12 226.88a513.728 513.728 0 0 1 85.568-36.544 807.296 807.296 0 0 1-26.176-190.336H64a446.208 446.208 0 0 0 92.544 253.888c13.632-9.92 27.968-18.944 42.816-27.008z m332.16-673.472v212.416a709.76 709.76 0 0 0 158.976-21.44 502.4 502.4 0 0 0-30.336-71.936c-35.84-68.672-80.896-110.144-128.64-119.04z m-39.04 407.616V328.128a748.48 748.48 0 0 1-170.176-23.104c-14.72 55.04-23.104 115.968-24.512 179.328h194.688z m209.216-179.328c-52.864 13.76-110.464 21.696-170.24 23.04v156.288h194.752a767.424 767.424 0 0 0-24.512-179.328z m-209.216 625.92v-212.416c-55.872 1.408-109.696 8.704-158.976 21.44 8.256 24.704 18.368 48.768 30.336 71.936 35.84 68.672 80.896 110.08 128.64 119.04zM363.84 195.776a502.4 502.4 0 0 0-30.336 71.936c49.28 12.672 103.104 20.032 158.976 21.44v-212.48c-47.744 8.96-92.8 50.432-128.64 119.04z m460.8 61.696a513.664 513.664 0 0 1-85.568 36.48c15.744 58.624 24.704 123.264 26.176 190.336H960A446.208 446.208 0 0 0 867.456 230.4a386.56 386.56 0 0 1-42.816 27.072z m-606.592-34.24c23.744 12.992 49.92 24.128 78.08 33.472 9.408-28.16 20.48-54.72 33.152-78.976 22.72-43.52 49.408-77.952 79.36-102.208q7.68-6.272 15.552-11.52a447.808 447.808 0 0 0-242.56 136.576c11.712 8.32 23.872 15.808 36.416 22.656z m190.592 708.928c-29.952-24.32-56.64-58.688-79.36-102.272a540.16 540.16 0 0 1-33.152-78.912c-28.16 9.28-54.336 20.48-78.08 33.472a354.368 354.368 0 0 0-36.352 22.656 447.808 447.808 0 0 0 242.56 136.512q-7.936-5.248-15.616-11.52z m397.312-147.712a474.88 474.88 0 0 0-78.08-33.472c-9.408 28.16-20.48 54.656-33.152 78.912-22.72 43.584-49.408 78.016-79.36 102.272q-7.68 6.208-15.552 11.52a447.808 447.808 0 0 0 242.56-136.576 354.24 354.24 0 0 0-36.416-22.656z m-145.792 27.456c11.968-23.168 22.08-47.232 30.336-71.936-49.28-12.736-103.104-20.032-158.976-21.44v212.416c47.744-8.96 92.8-50.368 128.64-119.04z m-128.64-288.576v156.16c59.712 1.472 117.312 9.344 170.176 23.168 14.72-55.04 23.104-115.904 24.512-179.328H531.584z m83.84-447.808c29.952 24.32 56.64 58.624 79.36 102.208 12.672 24.32 23.744 50.752 33.152 78.976 28.16-9.28 54.336-20.48 78.08-33.472 12.608-6.784 24.704-14.4 36.352-22.656A447.68 447.68 0 0 0 599.744 64q7.936 5.248 15.616 11.52z m252.16 701.696A446.208 446.208 0 0 0 960 523.328h-194.752a807.488 807.488 0 0 1-26.176 190.272c30.72 10.176 59.52 22.4 85.568 36.608 14.848 8.064 29.184 17.088 42.88 27.008z" fill="#c1afa0" p-id="10903"></path></svg>