<?xml version="1.0" encoding="UTF-8"?>
<svg version="1.1" xmlns="http://www.w3.org/2000/svg" width="512" height="512">
<path d="M0 0 C168.96 0 337.92 0 512 0 C512 168.96 512 337.92 512 512 C343.04 512 174.08 512 0 512 C0 343.04 0 174.08 0 0 Z " fill="#CA0125" transform="translate(0,0)"/>
<path d="M0 0 C168.96 0 337.92 0 512 0 C512 168.96 512 337.92 512 512 C343.04 512 174.08 512 0 512 C0 343.04 0 174.08 0 0 Z M39.58886719 88.20117188 C18.09208365 112.53864899 6.47718455 143.95193261 6.75 176.375 C6.75749268 177.56037354 6.76498535 178.74574707 6.77270508 179.96704102 C7.41968193 232.67577517 35.6790097 278.17689488 68.859375 317.10571289 C71.84155596 320.60781355 74.74817454 324.16024398 77.625 327.75 C81.06941878 331.98786525 84.71767622 335.86421539 88.6640625 339.63671875 C90.58905286 341.58424244 92.36197025 343.55977882 94.14233398 345.63574219 C97.94613251 349.99726715 101.96176091 354.10634718 106.05859375 358.19140625 C106.8065773 358.94034653 107.55456085 359.6892868 108.32521057 360.46092224 C109.89632464 362.03271225 111.46868392 363.60325849 113.04223633 365.17260742 C115.43099846 367.55601304 117.81437446 369.94471068 120.19726562 372.33398438 C121.7340545 373.87011237 123.2711536 375.40593009 124.80859375 376.94140625 C125.86209267 377.99794151 125.86209267 377.99794151 126.93687439 379.07582092 C130.91887315 383.03929366 135.00312898 386.82207611 139.25672913 390.49253845 C141.21731199 392.18791656 143.11861948 393.93605797 145 395.71875 C145.99 396.65267578 145.99 396.65267578 147 397.60546875 C148.33333333 398.86848958 149.66666667 400.13151042 151 401.39453125 C155.57343265 405.70892182 160.23854897 409.89425212 165 414 C165.5662207 414.48839355 166.13244141 414.97678711 166.71582031 415.47998047 C168.34986317 416.88525733 169.98682512 418.28704287 171.625 419.6875 C172.84249726 420.72910899 174.05994368 421.77077741 175.27734375 422.8125 C175.89206543 423.3384375 176.50678711 423.864375 177.14013672 424.40625 C178.97226908 425.97623688 180.80110477 427.54997431 182.62890625 429.125 C187.85206412 433.6221839 193.08278444 438.09669508 198.4375 442.4375 C204.12548109 447.05794212 209.64564851 451.86069222 215.171875 456.671875 C219.35851445 460.31666425 223.5704899 463.93132394 227.7890625 467.5390625 C230.75603943 470.07643191 233.71857072 472.618595 236.671875 475.171875 C239.58418583 477.68798738 242.50691327 480.19120476 245.44287109 482.6796875 C246.87828512 483.89679616 248.30852854 485.11999589 249.73828125 486.34375 C250.52589844 486.9934375 251.31351563 487.643125 252.125 488.3125 C252.78757813 488.86550781 253.45015625 489.41851562 254.1328125 489.98828125 C255.92847655 491.1622907 255.92847655 491.1622907 257.92578125 490.94921875 C260.8359484 489.61744734 262.74943757 487.7074587 265.0625 485.5 C268.69490933 482.09203123 272.36827865 478.81492573 276.25 475.6875 C282.6730194 470.49791961 288.87647979 465.06759444 295.10351562 459.64648438 C299.79784521 455.57097475 304.52898741 451.53816153 309.25292969 447.49707031 C311.03835624 445.96713241 312.82036145 444.43329199 314.6015625 442.8984375 C319.93550064 438.30622865 325.28042213 433.74355043 330.75 429.3125 C335.12151324 425.76543882 339.29954382 422.05176765 343.45703125 418.2578125 C346.13777224 415.87767687 348.89504134 413.62268159 351.6875 411.375 C355.42399458 408.35221787 358.88899067 405.24646819 362.21690369 401.78355408 C363.99701442 400.00298635 365.84078279 398.35587987 367.74829102 396.71313477 C380.42949634 385.68816869 392.34289668 373.81961997 404.20336914 361.92700195 C406.58820255 359.53673893 408.97843105 357.15196242 411.36914062 354.76757812 C412.91438372 353.22167518 414.45931709 351.67546257 416.00390625 350.12890625 C417.05560753 349.08024132 417.05560753 349.08024132 418.1285553 348.01039124 C422.08293048 344.03737219 425.86369515 339.96428792 429.52174377 335.71636963 C431.43011866 333.50059902 433.40198543 331.34572092 435.375 329.1875 C440.10580648 323.93813969 444.56910697 318.50311234 449 313 C449.93702553 311.85508027 450.87454838 310.71056742 451.8125 309.56640625 C469.55246829 287.81320064 486.49736061 263.49792073 495.96484375 236.859375 C497 234 497 234 498.43359375 230.90234375 C500.67146061 225.74107375 501.82850806 220.26884171 503.125 214.8125 C503.38925781 213.75224609 503.65351563 212.69199219 503.92578125 211.59960938 C506.85034975 199.41885579 507.18119374 187.48639249 507.1875 175 C507.19974609 173.72382813 507.21199219 172.44765625 507.22460938 171.1328125 C507.27740727 136.70858405 491.45971134 105.59060551 467.6875 81.375 C453.28569181 67.09193954 436.03727504 56.79094235 417 50 C416.19433594 49.69578125 415.38867188 49.3915625 414.55859375 49.078125 C403.76153277 45.18084332 392.43192216 43.41824105 381 43 C380.00274902 42.95915283 380.00274902 42.95915283 378.98535156 42.91748047 C342.0693436 41.57431222 308.2928275 54.81739553 281.296875 79.8359375 C280.53890625 80.55007812 279.7809375 81.26421875 279 82 C278.32453125 82.61101562 277.6490625 83.22203125 276.953125 83.8515625 C269.94565133 90.43858775 264.08872707 98.58206891 259.33203125 106.92578125 C258.89246094 107.61027344 258.45289063 108.29476562 258 109 C257.34 109 256.68 109 256 109 C254.91142134 107.44101062 253.90566332 105.82399356 252.9375 104.1875 C234.20643707 74.02469557 203.85534997 54.18687873 169.71484375 46 C121.58690477 35.29829646 72.58670615 52.06532224 39.58886719 88.20117188 Z " fill="#FEFEFE" transform="translate(0,0)"/>
<path d="M0 0 C3.1850357 1.76015131 3.83296972 2.49890916 5 6 C5.09422165 7.50328687 5.13324544 9.01037242 5.13803101 10.51660156 C5.14348434 11.44194702 5.14893768 12.36729248 5.15455627 13.32067871 C5.1555986 14.33376099 5.15664093 15.34684326 5.15771484 16.390625 C5.16279556 17.45913696 5.16787628 18.52764893 5.17311096 19.62854004 C5.18382008 21.95136696 5.19243813 24.27420423 5.19923019 26.5970459 C5.21100001 30.26950517 5.23044652 33.94184582 5.25234985 37.61425781 C5.3140413 48.05660076 5.36808734 58.49893106 5.40136719 68.94140625 C5.42226197 75.32510534 5.45752065 81.70858756 5.50212479 88.09216309 C5.51632363 90.52906753 5.52501593 92.96601034 5.52817917 95.4029541 C5.53306424 98.80532687 5.5561594 102.20711931 5.58349609 105.609375 C5.58048996 106.62245728 5.57748383 107.63553955 5.5743866 108.67932129 C5.58547958 109.60466675 5.59657257 110.53001221 5.60800171 111.48339844 C5.61131186 112.28791443 5.614622 113.09243042 5.61803246 113.92132568 C6.10286763 116.5598075 6.83914225 117.43726834 9 119 C14.42582812 119.75710522 14.42582812 119.75710522 19.10009766 117.47241211 C21.71395048 114.07091024 21.51306865 111.05735657 21.43359375 106.9453125 C21.44320123 105.34505113 21.45297195 103.74479073 21.46289062 102.14453125 C21.45430188 99.63416353 21.43749162 97.12405281 21.4152832 94.61376953 C21.40070951 92.18211271 21.41605248 89.75191827 21.43359375 87.3203125 C21.41711288 86.57637238 21.40063202 85.83243225 21.38365173 85.06594849 C21.42097513 81.14428392 21.94640353 78.56720478 24.34790039 75.52294922 C27 73 27 73 30 72.3125 C34.06827339 73.24481265 35.41741926 74.74061424 38 78 C38.48366259 80.922669 38.67658963 83.27352292 38.63671875 86.1875 C38.65228569 87.35768677 38.65228569 87.35768677 38.66816711 88.55151367 C38.6977736 91.03479418 38.69448674 93.5165755 38.6875 96 C38.6964126 98.48300313 38.7124397 100.96560826 38.7389679 103.44848633 C38.75380241 104.98992262 38.75773404 106.53151405 38.74919128 108.07299805 C38.77085414 112.16163631 39.17681785 115.3201994 41 119 C42.60332791 119.08121924 44.20784026 119.13929134 45.8125 119.1875 C46.70582031 119.22230469 47.59914063 119.25710938 48.51953125 119.29296875 C51.00176625 119.20850806 51.00176625 119.20850806 52.62963867 117.78979492 C54.42594285 115.44368661 54.38244086 114.0058716 54.40625 111.0703125 C54.43912109 109.62978516 54.43912109 109.62978516 54.47265625 108.16015625 C54.48167969 107.15855469 54.49070312 106.15695312 54.5 105.125 C54.61034567 92.97121267 54.61034567 92.97121267 58 89 C60.85324437 87.57337781 62.83454549 87.68966132 66 88 C68.66381836 89.50024414 68.66381836 89.50024414 71 92 C71.46770274 94.95969035 71.62934975 97.35636464 71.56640625 100.30859375 C71.57204086 101.11232925 71.57767548 101.91606476 71.58348083 102.74415588 C71.59992631 105.30919835 71.58439825 107.87251756 71.5625 110.4375 C71.54588569 112.99875197 71.53684107 115.5588625 71.55223083 118.12013245 C71.56148315 119.71171946 71.55243754 121.30354804 71.52259827 122.8948822 C71.5410922 126.65279255 71.86470709 128.78704666 73.89990234 131.99047852 C75.79023573 134.10860077 75.79023573 134.10860077 78.03515625 134.59375 C82.24310674 134.43728874 82.24310674 134.43728874 85.9375 132.625 C87.9052495 129.61550077 88.13059469 127.70677679 88.17578125 124.1328125 C88.19962891 123.16472656 88.22347656 122.19664062 88.24804688 121.19921875 C88.29084744 119.15776156 88.32218921 117.11603042 88.34179688 115.07421875 C88.554317 107.63107215 88.554317 107.63107215 90.859375 104.3671875 C93.71111859 102.54581842 95.60512866 102 99 102 C101.74716387 103.77039449 103.53145922 105.06291844 105 108 C105.10709465 110.07499956 105.14888524 112.15347587 105.16113281 114.23120117 C105.17074036 115.54404587 105.1803479 116.85689056 105.19024658 118.20951843 C105.19509981 119.6540001 105.19937734 121.09848379 105.203125 122.54296875 C105.20888232 124.02875265 105.21463997 125.51453654 105.22039795 127.00032043 C105.23092097 130.12676336 105.23675246 133.25318052 105.24023438 136.37963867 C105.24566647 140.34436526 105.26957322 144.30873916 105.29820633 148.27335644 C105.31705379 151.35102746 105.32205028 154.42861814 105.32357025 157.50634193 C105.32655714 158.96486615 105.33444759 160.42339036 105.34775543 161.88185692 C105.55332521 186.18294292 99.13948112 206.06920771 82.34765625 223.80078125 C77.06674354 228.76467235 71.36288612 232.56488706 65 236 C64.36835938 236.36738281 63.73671875 236.73476563 63.0859375 237.11328125 C61.09540996 238.21018898 59.09679678 239.12210239 57 240 C56.11054688 240.37382812 55.22109375 240.74765625 54.3046875 241.1328125 C46.13560937 244.00302914 38.41773065 244.3913333 29.8125 244.4375 C28.72018066 244.44749023 27.62786133 244.45748047 26.50244141 244.46777344 C9.59025786 244.28897071 -5.66199493 237.52451023 -18 226 C-24 219.85542169 -24 219.85542169 -24 217 C-24.66 217 -25.32 217 -26 217 C-32.75331158 205.82268282 -37.97248675 194.95947733 -40.9609375 182.13671875 C-41.13352081 181.39803558 -41.30610413 180.65935242 -41.48391724 179.89828491 C-43.1160656 172.75220116 -44.37020796 165.56374352 -45.52383423 158.32711792 C-46.01305296 155.25928667 -46.51611542 152.19376243 -47.01795959 149.12797546 C-47.27981208 147.52726549 -47.54098974 145.92644497 -47.80149841 144.32551575 C-49.13538907 136.13309084 -50.51633733 127.94889172 -51.91485596 119.76727295 C-52.30655612 117.47232484 -52.69508147 115.17685375 -53.08349609 112.88134766 C-53.32238653 111.48206141 -53.56147091 110.08280825 -53.80078125 108.68359375 C-54.00872314 107.46212646 -54.21666504 106.24065918 -54.4309082 104.98217773 C-54.93878312 101.96232844 -54.93878312 101.96232844 -56 99 C-56.16941458 97.02534811 -56.26596621 95.04385963 -56.3125 93.0625 C-56.36857422 91.50208984 -56.36857422 91.50208984 -56.42578125 89.91015625 C-55.89654081 86.29287065 -54.88260049 85.17990251 -52 83 C-48.5625 82.375 -48.5625 82.375 -45 83 C-40.40224361 87.45234542 -39.01674499 91.23330856 -37.9375 97.4375 C-37.78031494 98.25299316 -37.62312988 99.06848633 -37.46118164 99.90869141 C-36.95013367 102.60201811 -36.47090226 105.29937553 -36 108 C-35.83113281 108.96405762 -35.66226563 109.92811523 -35.48828125 110.92138672 C-34.79623049 114.89222307 -34.10865874 118.86371352 -33.43603516 122.83789062 C-32.36840999 129.09704236 -31.10307423 135.24156163 -29.578125 141.40625 C-29.05060395 143.77296608 -28.76053412 146.0250843 -28.5625 148.4375 C-27.88960628 152.69916021 -27.0222882 154.90021723 -24 158 C-21.00112668 158.73157998 -19.16608794 158.45229828 -16 158 C-13.32568511 156.18836733 -13.04079641 155.12238923 -12 152 C-11.90531795 150.01761067 -11.8710012 148.03214839 -11.86869812 146.04750061 C-11.86468994 144.80386246 -11.86068176 143.5602243 -11.85655212 142.27890015 C-11.85702721 140.89825437 -11.85756333 139.51760862 -11.8581543 138.13696289 C-11.85512266 136.68489984 -11.85160119 135.23283775 -11.84762573 133.78077698 C-11.8397375 130.65254167 -11.83459214 127.52431777 -11.83133507 124.3960743 C-11.82542668 119.45057303 -11.80888863 114.50514378 -11.78999329 109.55967712 C-11.78365599 107.86694817 -11.77733037 106.17421917 -11.77101612 104.48149014 C-11.76785031 103.63379932 -11.7646845 102.78610851 -11.76142275 101.9127301 C-11.71933091 90.39829434 -11.68635972 78.88389236 -11.67407227 67.36938477 C-11.66569962 59.6032407 -11.64324009 51.83727512 -11.6047166 44.07122034 C-11.58493157 39.96081514 -11.57255945 35.85067689 -11.57755089 31.74022102 C-11.58218758 27.87493254 -11.56844637 24.01015056 -11.54053879 20.14496422 C-11.53361084 18.72599576 -11.5335177 17.30697511 -11.54073906 15.88800812 C-11.54959798 13.95183007 -11.53161859 12.01558449 -11.51225281 10.07948303 C-11.50986445 8.99566377 -11.5074761 7.9118445 -11.50501537 6.79518223 C-10.31955509 0.23384236 -6.04058896 -0.75507362 0 0 Z " fill="#CA0125" transform="translate(226,177)"/>
<path d="M0 0 C6.56002863 4.03362811 11.699025 10.09858132 13.5625 17.5625 C13.83477289 21.76958638 13.79492787 25.96537249 13.7578125 30.1796875 C13.7549826 31.39198029 13.75215271 32.60427307 13.74923706 33.853302 C13.73806667 37.71480289 13.71296737 41.57606953 13.6875 45.4375 C13.67746616 48.05989248 13.66834102 50.6822886 13.66015625 53.3046875 C13.63813758 59.72403789 13.60469098 66.1432522 13.5625 72.5625 C14.14902344 72.40394531 14.73554688 72.24539062 15.33984375 72.08203125 C22.95679123 70.30161998 29.70505931 72.07255251 36.5625 75.5625 C40.85263079 78.79541999 44.11969424 82.2722122 45.5625 87.5625 C46.2225 87.2325 46.8825 86.9025 47.5625 86.5625 C56.04340713 85.72501042 63.20085545 85.67907367 70.44140625 90.625 C72.74368029 92.72799802 74.27851429 94.90764504 76 97.5 C77.54788691 99.87280591 77.54788691 99.87280591 79.5625 101.5625 C82.51562019 101.88271785 84.94131078 101.51050313 87.859375 100.98828125 C94.18719592 99.99155801 99.55204669 102.6201254 104.73828125 106.07421875 C109.1275488 109.65518436 111.77500503 114.23996373 113.5625 119.5625 C113.82992554 122.96586609 113.82992554 122.96586609 113.85302734 126.9128418 C113.85974457 127.63568359 113.86646179 128.35852539 113.87338257 129.10327148 C113.89234754 131.48949113 113.89628814 133.87542842 113.8984375 136.26171875 C113.90487416 137.93781139 113.91160315 139.61390293 113.91860962 141.28999329 C113.93058416 144.80964755 113.93429103 148.32920376 113.93310547 151.84887695 C113.93290403 156.30769756 113.96002149 160.76586812 113.99464989 165.22453594 C114.01717251 168.69351437 114.02093512 172.16234374 114.01988602 175.63138771 C114.0222112 177.27164732 114.03085549 178.91191307 114.04655075 180.55209923 C114.28297778 207.84975537 105.66464096 230.89331961 86.5625 250.5625 C86.00175781 251.18511719 85.44101562 251.80773437 84.86328125 252.44921875 C70.69848043 267.7115344 49.06023515 276.06510572 28.59765625 276.94140625 C0.96191789 277.61592995 -19.90093499 271.33392559 -40.5 252 C-61.9979465 229.67121499 -66.58150868 202.0734883 -71.4375 172.5625 C-71.81554348 170.29933488 -72.19441082 168.03630718 -72.57421875 165.7734375 C-73.23408817 161.83783046 -73.89112168 157.90178751 -74.54296875 153.96484375 C-74.68927734 153.08401123 -74.83558594 152.20317871 -74.98632812 151.2956543 C-75.30109134 149.38885009 -75.61198692 147.48140515 -75.91992188 145.57348633 C-76.69333285 140.82497041 -77.50651934 136.10074558 -78.5078125 131.39453125 C-84.50759691 103.18448502 -84.50759691 103.18448502 -79 92.875 C-75.00757694 87.31785056 -69.28598968 82.78544459 -62.4375 81.5625 C-53.9104683 80.68729147 -47.63957864 81.82806584 -40.4375 86.5625 C-39.4475 87.5525 -39.4475 87.5525 -38.4375 88.5625 C-38.43163376 87.73057632 -38.42576752 86.89865265 -38.41972351 86.04151917 C-38.36162921 78.17100009 -38.28945759 70.30075976 -38.20178509 62.43051243 C-38.15720831 58.38509201 -38.11792495 54.33976937 -38.09106445 50.29418945 C-38.06490386 46.38417856 -38.02441334 42.47454648 -37.97431374 38.56477165 C-37.95773069 37.07902708 -37.94616341 35.59321712 -37.93988609 34.10739326 C-37.88559002 22.42865716 -37.01818457 12.27577793 -28.4375 3.5625 C-20.88828425 -2.95799663 -9.11879659 -3.89260882 0 0 Z M-17.63288784 17.2029047 C-19.9343936 20.21220625 -19.93702331 21.86354306 -19.93629456 25.62852478 C-19.94587189 26.87209244 -19.95544922 28.1156601 -19.96531677 29.39691162 C-19.95581944 30.77234129 -19.94596555 32.14776853 -19.93579102 33.52319336 C-19.93961459 34.97378599 -19.94523395 36.42437483 -19.95251465 37.87495422 C-19.9644667 40.99727641 -19.963975 44.11926235 -19.95392036 47.2415905 C-19.93836485 52.17913295 -19.95203386 57.11632973 -19.96995544 62.05384827 C-20.00078314 71.6444385 -20.00227635 81.23492328 -20.00030518 90.82555389 C-19.99891258 103.02970347 -20.00924982 115.23377188 -20.0488829 127.4378615 C-20.06382003 132.34558984 -20.06354387 137.25301248 -20.05140507 142.1607455 C-20.04669412 145.21478283 -20.05421395 148.26870317 -20.06494904 151.32272148 C-20.06735512 152.7380634 -20.06461998 154.1534249 -20.05634117 155.56874466 C-20.04570815 157.50230024 -20.05520597 159.43593518 -20.06568909 161.36949158 C-20.06480962 162.99188956 -20.06480962 162.99188956 -20.06391239 164.64706326 C-20.52849073 168.27258171 -21.83466143 170.95966143 -24.4375 173.5625 C-30.19700119 174.22342637 -30.19700119 174.22342637 -32.4375 173.5625 C-35.93551201 169.3963992 -37.09483014 165.74853766 -37.9375 160.4375 C-38.17542821 159.01795076 -38.41509536 157.59869219 -38.65625 156.1796875 C-38.78 155.43170898 -38.90375 154.68373047 -39.03125 153.91308594 C-39.74575097 149.77894208 -40.59901026 145.67295254 -41.4375 141.5625 C-42.54355062 136.09070732 -43.62588588 130.6169719 -44.63256836 125.12597656 C-45.21849429 121.93511347 -45.82645991 118.74863759 -46.4375 115.5625 C-46.67210937 114.32886719 -46.90671875 113.09523438 -47.1484375 111.82421875 C-47.38820313 110.66535156 -47.62796875 109.50648438 -47.875 108.3125 C-48.07996094 107.29671875 -48.28492188 106.2809375 -48.49609375 105.234375 C-49.60369861 102.09079937 -50.83118568 100.61683247 -53.4375 98.5625 C-56.9375 97.89583333 -56.9375 97.89583333 -60.4375 98.5625 C-62.91013598 100.50970083 -64.24574892 101.74050823 -64.96875 104.83984375 C-64.89134412 111.42901952 -63.94724444 117.64533866 -62.66015625 124.08203125 C-62.29395849 125.95819526 -61.92892656 127.83458712 -61.56494141 129.71118164 C-61.28387543 131.15873337 -61.28387543 131.15873337 -60.99713135 132.63552856 C-60.09197379 137.36966349 -59.24439375 142.11366849 -58.40234375 146.859375 C-58.23525909 147.80043594 -58.06817444 148.74149689 -57.89602661 149.71107483 C-57.38799533 152.57803666 -56.88145648 155.4452596 -56.375 158.3125 C-56.03332492 160.240907 -55.69152825 162.16929246 -55.34960938 164.09765625 C-55.18201614 165.04362167 -55.01442291 165.9895871 -54.8417511 166.96421814 C-54.50995742 168.83679013 -54.17792022 170.70931899 -53.84562683 172.58180237 C-53.08573054 176.87024931 -52.33281794 181.1595756 -51.60083008 185.45288086 C-51.469673 186.21542175 -51.33851593 186.97796265 -51.2033844 187.76361084 C-50.85578188 189.78813794 -50.51218995 191.81335254 -50.16894531 193.83862305 C-47.46892203 207.58476964 -42.22543274 220.8806009 -34.4375 232.5625 C-33.7775 232.5625 -33.1175 232.5625 -32.4375 232.5625 C-32.16421875 233.14644531 -31.8909375 233.73039063 -31.609375 234.33203125 C-25.64665589 245.68107329 -12.16899026 253.39635858 -0.4375 257.5625 C19.06265788 263.35107146 39.62842127 260.24740247 57.4375 251.25 C66.9720177 245.79328591 74.6893049 239.11103641 81.5625 230.5625 C82.18125 229.80324219 82.8 229.04398438 83.4375 228.26171875 C94.86400854 213.2151741 97.04210625 193.72205371 97.03125 175.3984375 C97.03837591 173.90727462 97.04607831 172.4161144 97.05432129 170.92495728 C97.0676218 167.83417058 97.06939586 164.74363896 97.06347656 161.65283203 C97.05752398 157.69949908 97.08846404 153.74737044 97.12859344 149.79427147 C97.15443883 146.72984255 97.15735214 143.66570772 97.15370178 140.60118484 C97.15538894 139.14275655 97.16499263 137.6843141 97.18284607 136.22599411 C97.2050193 134.19554221 97.19212916 132.16479929 97.17773438 130.13427734 C97.17978882 128.98261078 97.18184326 127.83094421 97.18395996 126.64437866 C96.3717851 122.6167268 94.69624162 121.12984959 91.5625 118.5625 C88.65955698 117.50044768 87.2948202 117.31141879 84.375 118.3125 C82.27136156 119.59833873 82.27136156 119.59833873 80.5625 122.5625 C80.22840077 124.91483328 80.22840077 124.91483328 80.21875 127.52734375 C80.18910156 128.49220703 80.15945313 129.45707031 80.12890625 130.45117188 C80.10699219 131.45728516 80.08507812 132.46339844 80.0625 133.5 C80.01902181 135.48848803 79.96725685 137.47681629 79.90625 139.46484375 C79.88755859 140.34648193 79.86886719 141.22812012 79.84960938 142.13647461 C79.54315978 144.72592161 78.95213704 146.36644306 77.5625 148.5625 C74.42849115 150.12950442 70.93094905 150.41414561 67.5625 149.5625 C64.46452089 146.60770933 63.6100679 144.96019351 63.09594727 140.66186523 C63.08849827 139.1482532 63.100529 137.63445809 63.12890625 136.12109375 C63.11930452 134.46940008 63.10953381 132.81770739 63.09960938 131.16601562 C63.10822233 128.57646962 63.12510953 125.98717022 63.1472168 123.39770508 C63.16172729 120.88834071 63.14649787 118.38040704 63.12890625 115.87109375 C63.14538712 115.09809433 63.16186798 114.32509491 63.17884827 113.52867126 C63.14283262 109.65377035 62.91968466 107.94163434 60.21850586 105.07446289 C56.97260123 103.22669311 55.24035314 102.93648244 51.5625 103.5625 C49.25974444 105.4295991 47.88426129 106.91897741 46.5625 109.5625 C46.44549017 111.19393588 46.38375771 112.82953406 46.3515625 114.46484375 C46.32320313 115.43744141 46.29484375 116.41003906 46.265625 117.41210938 C46.21364507 119.4666163 46.16934298 121.52133218 46.1328125 123.57617188 C46.101875 124.55005859 46.0709375 125.52394531 46.0390625 126.52734375 C46.01924316 127.4205835 45.99942383 128.31382324 45.97900391 129.23413086 C45.48519598 131.99465032 44.7951067 132.9090899 42.5625 134.5625 C40.08203125 134.85546875 40.08203125 134.85546875 37.375 134.75 C36.47394531 134.72292969 35.57289063 134.69585937 34.64453125 134.66796875 C33.95746094 134.63316406 33.27039063 134.59835937 32.5625 134.5625 C30.39535768 130.18847098 30.29773096 126.15454627 30.32421875 121.375 C30.30880551 119.77342896 30.29250235 118.17186629 30.27539062 116.5703125 C30.25892082 114.06198587 30.25002314 111.55427489 30.25708008 109.04589844 C30.25970251 106.61323274 30.23157709 104.182418 30.19921875 101.75 C30.20942551 101.00403564 30.21963226 100.25807129 30.23014832 99.48950195 C30.1558733 95.52317652 29.70311172 93.73996118 27.21020508 90.59375 C24.69764217 88.37450671 24.69764217 88.37450671 21.5625 87.875 C18.10274755 88.66785994 16.77900376 89.98436485 14.60794067 92.73651123 C12.77159578 95.94391003 12.91673088 99.30040203 12.99609375 102.8828125 C12.99045914 103.66389374 12.98482452 104.44497498 12.97901917 105.24972534 C12.96263831 107.72960407 12.97806113 110.20768471 13 112.6875 C13.01661066 115.17428368 13.02568278 117.65989606 13.01026917 120.146698 C13.00100795 121.68928402 13.01009267 123.2321188 13.03990173 124.77444458 C13.02187904 128.30369919 12.84375137 130.19649735 10.66259766 133.03491211 C7.13452193 135.60119551 4.84213431 135.03801492 0.5625 134.5625 C-1.59632788 133.00094452 -2.33502815 132.12690994 -2.81388092 129.48941231 C-2.81459343 128.68749395 -2.81530594 127.8855756 -2.81604004 127.05935669 C-2.82424271 126.13690155 -2.83244537 125.21444641 -2.84089661 124.26403809 C-2.83474838 123.2540979 -2.82860016 122.24415771 -2.82226562 121.20361328 C-2.8276384 120.1383139 -2.83301117 119.07301453 -2.83854675 117.97543335 C-2.84834062 115.65916892 -2.85126407 113.34286772 -2.84819031 111.02658463 C-2.84372446 107.36185358 -2.8576784 103.69760856 -2.87658691 100.03292847 C-2.91343034 92.25112701 -2.92708778 84.46937586 -2.9375 76.6875 C-2.94956633 67.67824998 -2.97106529 58.66923551 -3.01750183 49.6600914 C-3.03109976 46.0477252 -3.02689561 42.43565458 -3.02209473 38.82327271 C-3.03143441 36.60890321 -3.041603 34.394537 -3.05273438 32.18017578 C-3.04658615 31.17428406 -3.04043793 30.16839233 -3.03410339 29.13201904 C-3.0837624 22.352001 -3.0837624 22.352001 -6.4375 16.5625 C-10.26300672 14.64974664 -14.19293153 14.63255226 -17.63288784 17.2029047 Z " fill="#FDFAFA" transform="translate(234.4375,161.4375)"/>
<path d="M0 0 C6.01570487 3.11401907 10.46676839 7.98240356 15.25 12.6875 C16.63445312 13.99750977 16.63445312 13.99750977 18.046875 15.33398438 C25.48137473 22.65368668 25.48137473 22.65368668 26.15234375 27.49609375 C25.92997812 32.61050328 25.92997812 32.61050328 24 35 C21.44859216 37.06075249 19.75422953 37.00702201 16.4453125 37.1015625 C10.22710681 36.24361111 6.60610901 31.42607676 2.5 27.0625 C1.67757812 26.22525391 0.85515625 25.38800781 0.0078125 24.52539062 C-6 18.3229729 -6 18.3229729 -6 16 C-6.66 16 -7.32 16 -8 16 C-8 15.34 -8 14.68 -8 14 C-8.66 14 -9.32 14 -10 14 C-11.19754817 10.40735548 -11.33094958 7.77282526 -11 4 C-8.0924049 -0.53584835 -5.13871387 -0.63107012 0 0 Z " fill="#FCF9F9" transform="translate(175,126)"/>
<path d="M0 0 C1.10359863 -0.00218285 1.10359863 -0.00218285 2.22949219 -0.00440979 C3.77933731 -0.00275564 5.32919968 0.00875148 6.87890625 0.02954102 C9.2429017 0.05850678 11.60465313 0.05013944 13.96875 0.03710938 C15.4791775 0.04334742 16.98959796 0.05173888 18.5 0.0625 C19.2022168 0.05956436 19.90443359 0.05662872 20.62792969 0.05360413 C24.9872743 0.1368555 27.77843842 0.82675981 31.25 3.49609375 C32.81700442 6.6301026 33.10164561 10.1276447 32.25 13.49609375 C29.33098634 16.52701059 27.65435339 17.44114668 23.44116211 18.01367188 C21.97011588 18.03988951 20.49853766 18.04324566 19.02734375 18.02734375 C17.85359947 18.03308411 17.85359947 18.03308411 16.65614319 18.03894043 C15.00797228 18.04165352 13.35975788 18.03433452 11.71166992 18.01757812 C9.19156946 17.99612839 6.67431003 18.0174123 4.15429688 18.04296875 C2.54947289 18.04032593 0.94465067 18.03520188 -0.66015625 18.02734375 C-1.41128189 18.03544067 -2.16240753 18.0435376 -2.93629456 18.05187988 C-6.4534093 17.98891576 -8.39193759 17.77070971 -11.22021484 15.6015625 C-12.9692482 13.19433881 -13.31755506 11.94824943 -13.3125 8.99609375 C-13.33441406 8.24328125 -13.35632813 7.49046875 -13.37890625 6.71484375 C-11.58217752 0.37607406 -5.67412938 -0.09077403 0 0 Z " fill="#FCF6F7" transform="translate(270.75,175.50390625)"/>
<path d="M0 0 C0.75792847 -0.00478363 1.51585693 -0.00956726 2.29675293 -0.01449585 C3.89365727 -0.01788696 5.49063178 -0.0087395 7.08740234 0.01220703 C9.52469402 0.03899046 11.95738192 0.01243943 14.39453125 -0.01953125 C15.95053095 -0.016227 17.50652779 -0.00982045 19.0625 0 C19.78659058 -0.01012115 20.51068115 -0.02024231 21.25671387 -0.03067017 C25.20727552 0.06033114 26.88779076 0.54719039 29.98999023 3.07446289 C31.9978829 5.62173206 32.70067951 6.56270714 32.59375 9.7265625 C32.03125 13.6640625 32.03125 13.6640625 30.50170898 15.87475586 C27.09119166 18.34492894 24.00014765 18.25726963 19.94140625 18.23046875 C18.76909706 18.23976662 18.76909706 18.23976662 17.57310486 18.24925232 C15.92317956 18.25634353 14.2731826 18.25318855 12.62329102 18.24047852 C10.1049356 18.22662404 7.59030655 18.26067226 5.07226562 18.29882812 C3.46614493 18.29977952 1.8600196 18.29791941 0.25390625 18.29296875 C-0.49519516 18.30622696 -1.24429657 18.31948517 -2.01609802 18.33314514 C-5.96878156 18.26312066 -7.79232238 17.80168618 -10.94360352 15.34350586 C-12.96875 12.6640625 -12.96875 12.6640625 -13.59375 9.1640625 C-12.22126753 1.47816066 -7.08275926 -0.09900102 0 0 Z " fill="#FCF7F7" transform="translate(155.96875,175.3359375)"/>
<path d="M0 0 C3.9375 0.5625 3.9375 0.5625 6.14819336 2.07617188 C8.65322443 5.55703371 8.53032437 8.77225618 8.50390625 12.90625 C8.51320412 14.11541077 8.51320412 14.11541077 8.52268982 15.34899902 C8.52978124 17.05019932 8.5266257 18.75146912 8.51391602 20.45263672 C8.50004341 23.05435887 8.53413248 25.65248754 8.57226562 28.25390625 C8.57321681 29.90885505 8.57135801 31.56380834 8.56640625 33.21875 C8.57966446 33.99488647 8.59292267 34.77102295 8.60658264 35.57067871 C8.54019759 39.42437231 8.28397605 41.18947868 5.62084961 44.05664062 C2.12006276 46.02123468 -0.10429335 46.06627175 -4.0625 45.5625 C-7.2475357 43.80234869 -7.89546972 43.06359084 -9.0625 39.5625 C-9.33757539 34.73858303 -9.37581068 29.91549792 -9.41259766 25.08447266 C-9.42916356 23.48992321 -9.45646257 21.89544822 -9.49462891 20.30126953 C-9.54951247 17.9947281 -9.57128412 15.68991964 -9.5859375 13.3828125 C-9.60860687 12.67432159 -9.63127625 11.96583069 -9.65463257 11.23587036 C-9.63790639 7.30001655 -9.17946255 5.70614386 -6.66088867 2.61303711 C-4.10824205 0.59859767 -3.17062195 -0.1071582 0 0 Z " fill="#FCF7F7" transform="translate(223.0625,104.4375)"/>
<path d="M0 0 C1.9375 1 1.9375 1 3 3 C4.46889244 7.814703 4.46889244 7.814703 4 11 C2.76635742 12.85693359 2.76635742 12.85693359 1.04296875 14.7109375 C0.40423828 15.4030835 -0.23449219 16.09522949 -0.89257812 16.80834961 C-4.49627907 20.5560817 -8.12642704 24.27060868 -11.8125 27.9375 C-12.57498047 28.70384766 -13.33746094 29.47019531 -14.12304688 30.25976562 C-14.85201172 30.98744141 -15.58097656 31.71511719 -16.33203125 32.46484375 C-16.98921143 33.120896 -17.6463916 33.77694824 -18.32348633 34.45288086 C-20.56405526 36.52052107 -21.75949688 36.96793292 -24.8125 37.375 C-28 37 -28 37 -30.875 35 C-33.14976167 31.78857176 -33.49520255 29.92793959 -33.37908936 26.03536987 C-32.71675588 22.47923311 -30.58550137 20.67394349 -28.0390625 18.22265625 C-27.28041397 17.47742958 -27.28041397 17.47742958 -26.50643921 16.71714783 C-24.8971799 15.14580868 -23.26204127 13.60481847 -21.625 12.0625 C-20.53208514 11.00116759 -19.4409187 9.93803159 -18.3515625 8.87304688 C-8.30010736 -0.88443767 -8.30010736 -0.88443767 0 0 Z " fill="#FDFAFA" transform="translate(278,126)"/>
</svg>
